# AST/ASF file generated using VICON BodyLanguage
# -----------------------------------------------
:version 1.10
:name VICON
:units
  mass 1.0
  length 0.45
  angle deg
:documentation
   .ast/.asf automatically generated from VICON data using
   VICON BodyBuilder and BodyLanguage model FoxedUp or BRILLIANT.MOD
:root
   order TX TY TZ RX RY RZ
   axis XYZ
   position 0 0 0  
   orientation 0 0 0 
:bonedata
  begin
     id 1 
     name lhipjoint
     direction 0.561001 -0.76473 0.316963 
     length 2.4722 
     axis 0 0 0  XYZ
  end
  begin
     id 2 
     name lfemur
     direction 0.34202 -0.939693 0  
     length 7.59403  
     axis 0 0 20  XYZ
    dof rx ry rz
    limits (-160.0 20.0)
           (-70.0 70.0)
           (-60.0 70.0)
  end
  begin
     id 3 
     name ltibia
     direction 0.34202 -0.939693 0   
     length 7.89655   
     axis 0 0 20   XYZ
    dof rx
    limits (-10.0 170.0)
  end
  begin
     id 4 
     name lfoot
     direction 0.061296 -0.168409 0.98381   
     length 2.73287   
     axis -90 7.62852e-016 20   XYZ
    dof rx rz
    limits (-45.0 90.0)
           (-70.0 20.0)
  end
  begin
     id 5 
     name ltoes
     direction 1.53547e-011 -4.21984e-011 1   
     length 1.37057   
     axis -90 7.62852e-016 20   XYZ
    dof rx
    limits (-90.0 20.0)
  end
  begin
     id 6 
     name rhipjoint
     direction -0.559611 -0.765599 0.317323   
     length 2.46939  
     axis 0 0 0  XYZ 
  end
  begin
     id 7 
     name rfemur
     direction -0.34202 -0.939693 0   
     length 7.53712   
     axis 0 0 -20   XYZ
    dof rx ry rz
    limits (-160.0 20.0)
           (-70.0 70.0)
           (-70.0 60.0)
  end
  begin
     id 8 
     name rtibia
     direction -0.34202 -0.939693 0   
     length 8.12549   
     axis 0 0 -20   XYZ
    dof rx
    limits (-10.0 170.0)
 end
 begin
     id 9 
     name rfoot
     direction -0.066984 -0.184037 0.980634   
     length 2.67541  
     axis -90 -7.62852e-016 -20   XYZ
    dof rx rz
    limits (-45.0 90.0)
           (-20.0 70.0)
  end
  begin
     id 10 
     name rtoes
     direction -1.53549e-011 -4.21786e-011 1   
     length 1.34085   
     axis -90 -7.62852e-016 -20   XYZ
    dof rx
    limits (-90.0 20.0)
  end
  begin
     id 11 
     name lowerback
     direction -0.0522728 0.992594 -0.109658   
     length 2.05633   
     axis 0 0 0   XYZ
    dof rx ry rz
    limits (-20.0 45.0)
           (-30.0 30.0)
           (-30.0 30.0)
  end
  begin
     id 12 
     name upperback
     direction 0.00589338 0.999977 0.00335704   
     length 2.05845   
     axis 0 0 0   XYZ
    dof rx ry rz
    limits (-20.0 45.0)
           (-30.0 30.0)
           (-30.0 30.0)
  end
  begin
     id 13 
     name thorax
     direction 0.0292928 0.998059 0.0549487   
     length 2.09281   
     axis 0 0 0   XYZ
    dof rx ry rz
    limits (-20.0 45.0)
           (-30.0 30.0)
           (-30.0 30.0)
  end
  begin
     id 14 
     name lowerneck
     direction 0.0356368 0.980775 0.191858   
     length 1.84767   
     axis 0 0 0   XYZ
    dof rx ry rz
    limits (-20.0 45.0)
           (-30.0 30.0)
           (-30.0 30.0)
  end
  begin
     id 15 
     name upperneck
     direction -0.0227605 0.98931 -0.14404   
     length 1.89582   
     axis 0 0 0   XYZ
    dof rx ry rz
    limits (-20.0 45.0)
           (-30.0 30.0)
           (-30.0 30.0)
  end
  begin
     id 16
     name head
     direction -0.00932985 0.997511 -0.0698904  
     length 1.90213  
     axis 0 0 0   XYZ
    dof rx ry rz
    limits (-20.0 45.0)
           (-30.0 30.0)
           (-30.0 30.0)
  end
  begin
     id 17 
     name lclavicle
     direction 0.873442 0.479511 0.0846686  
     length 3.41193  
     axis 0 0 0   XYZ
    dof ry rz
    limits (-20.0 10.0)
           (0.0 20.0)
  end
  begin
     id 18 
     name lhumerus
     direction 1 -4.4897e-011 -5.62117e-018   
     length 5.59864   
     axis 180 -30 -90   XYZ
    dof rx ry rz
    limits (-60.0 90.0)
           (-90.0 90.0)
           (-90.0 90.0)
  end
  begin
     id 19
     name lradius
     direction 1 -4.48966e-011 -6.26295e-027   
     length 3.59542   
     axis 180 -30 -90   XYZ
    dof rx
    limits (-10.0 170.0)
  end
  begin
     id 20
     name lwrist
     direction 1 -4.48947e-011 -1.74096e-026   
     length 1.79771   
     axis 1.04567e-014 90 90   XYZ
    dof ry
    limits (-180.0 0.0)
 end
  begin
     id 21 
     name lhand
     direction 1 -4.49085e-011 -3.48469e-026   
     length 0.572014   
     axis 2.22196e-014 90 90   XYZ
    dof rx rz
    limits (-90.0 90.0)
           (-45.0 45.0)
  end
  begin
     id 22 
     name lfingers
     direction 1 -4.48884e-011 -6.96135e-026   
     length 0.461173   
     axis 4.44383e-014 90 90   XYZ
    dof rx
    limits (0.0 90.0)
  end
  begin
     id 23
     name lthumb
     direction 0.707107 -6.34976e-011 0.707107   
     length 0.662154   
     axis -90 45 -5.4397e-014   XYZ
    dof rx rz
    limits (-45.0 45.0)
           (-45.0 45.0)
  end
  begin
     id 24 
     name rclavicle
     direction -0.890242 0.443271 0.104786   
     length 3.46753  
     axis 0 0 0   XYZ 
    dof ry rz
    limits (-10.0 20.0)
           (-20.0 0.0)
  end
  begin
     id 25 
     name rhumerus
     direction -1 -4.48963e-011 -5.41723e-018  
     length 5.8094   
     axis 180 30 90   XYZ
    dof rx ry rz
    limits (-90.0 60.0)
           (-90.0 90.0)
           (-90.0 90.0)
  end
  begin
     id 26 
     name rradius
     direction -1 -4.48958e-011 -6.51059e-027   
     length 3.66953   
     axis 180 30 90   XYZ
    dof rx
    limits (-10.0 170.0)
  end
  begin
     id 27 
     name rwrist
     direction -1 -4.48975e-011 -1.74124e-026   
     length 1.83476   
     axis 1.04567e-014 -90 -90   XYZ
    dof ry
    limits (-180.0 0.0)
  end
  begin
     id 28
     name rhand
     direction -1 -4.49013e-011 -3.48326e-026   
     length 0.57843   
     axis 2.22196e-014 -90 -90   XYZ
    dof rx rz
    limits (-90.0 90.0)
           (-45.0 45.0)
  end
  begin
     id 29
     name rfingers
     direction -1 -4.49023e-011 -6.9669e-026   
     length 0.466345   
     axis 4.44383e-014 -90 -90   XYZ
    dof rx
    limits (0.0 90.0)
  end
  begin
     id 30
     name rthumb
     direction -0.707107 -6.34926e-011 0.707107   
     length 0.669581   
     axis -90 -45 5.4397e-014   XYZ
    dof rx rz
    limits (-45.0 45.0)
           (-45.0 45.0)
  end
:hierarchy
  begin
    root lhipjoint rhipjoint lowerback
    lhipjoint lfemur
    lfemur ltibia
    ltibia lfoot
    lfoot ltoes
    rhipjoint rfemur
    rfemur rtibia
    rtibia rfoot
    rfoot rtoes
    lowerback upperback
    upperback thorax
    thorax lowerneck lclavicle rclavicle
    lowerneck upperneck
    upperneck head
    lclavicle lhumerus
    lhumerus lradius
    lradius lwrist
    lwrist lhand lthumb
    lhand lfingers
    rclavicle rhumerus
    rhumerus rradius
    rradius rwrist
    rwrist rhand rthumb
    rhand rfingers
  end

#!OML:ASF H:\SkateBoarding\Project 1\Capture day 1\Session 1\Skater.ASF
:FULLY-SPECIFIED
:DEGREES
241
root 3.22724 17.2187 9.29964 7.88755 18.64 0.580119
lowerback 16.0888 0.906823 -6.52773
upperback 1.41517 -0.0312984 -1.04487
thorax -7.51641 0.184695 2.58543
lowerneck -13.3725 -1.72055 1.17406
upperneck 25.7585 -3.3166 2.52677
head 10.4842 -1.07304 0.279564
rclavicle -5.54609e-014 -3.97569e-015
rhumerus -25.1957 4.5088 -84.9642
rradius 38.9365
rwrist -12.7271
rhand -42.7132 -4.36184
rfingers 7.12502
rthumb -15.5822 -33.7542
lclavicle -5.54609e-014 -3.97569e-015
lhumerus -28.4327 -10.5891 88.1059
lradius 37.2938
lwrist 25.8853
lhand -28.1183 9.341
lfingers 7.12502
lthumb -1.50018 39.3155
rfemur -58.5279 5.74237 12.0773
rtibia 73.846
rfoot -14.5153 16.807
rtoes -8.19149
lfemur 1.41964 -1.31 -13.3158
ltibia 37.2894
lfoot -8.21588 -23.549
ltoes 18.6841
242
root 3.22911 17.1507 9.36732 7.97914 18.6146 0.604738
lowerback 16.2711 0.873868 -6.47159
upperback 1.52174 -0.0690475 -0.985384
thorax -7.49803 0.163204 2.62656
lowerneck -13.2848 -1.72178 1.20138
upperneck 25.6486 -3.21504 2.14158
head 10.4164 -1.07277 0.15198
rclavicle -3.85642e-014 -4.77083e-015
rhumerus -24.9035 4.68385 -84.9333
rradius 38.9889
rwrist -12.609
rhand -42.7744 -4.22442
rfingers 7.12502
rthumb -15.6411 -33.6121
lclavicle -3.85642e-014 -4.77083e-015
lhumerus -28.1354 -10.4664 88.0056
lradius 36.7025
lwrist 25.8391
lhand -28.535 9.56191
lfingers 7.12502
lthumb -1.90264 39.5332
rfemur -59.2715 5.36055 11.9862
rtibia 74.4054
rfoot -14.1609 17.1445
rtoes -7.95328
lfemur 0.908511 -0.908815 -13.1525
ltibia 38.6852
lfoot -8.36661 -23.9713
ltoes 17.9794
243
root 3.23168 17.0792 9.43931 8.09028 18.6069 0.640951
lowerback 16.4094 0.825611 -6.41651
upperback 1.62166 -0.122894 -0.914859
thorax -7.46088 0.133721 2.68385
lowerneck -13.1964 -1.71614 1.24522
upperneck 25.5552 -3.0968 1.71028
head 10.354 -1.0679 0.00777865
rclavicle 3.45885e-014 7.95139e-016
rhumerus -24.5954 4.82218 -84.8802
rradius 39.0051
rwrist -12.46
rhand -42.8561 -4.05715
rfingers 7.12502
rthumb -15.7198 -33.4387
lclavicle 3.45885e-014 7.95139e-016
lhumerus -27.846 -10.3279 87.9306
lradius 36.1056
lwrist 25.7279
lhand -28.824 9.69746
lfingers 7.12502
lthumb -2.18173 39.6661
rfemur -60.0432 4.95972 11.8924
rtibia 75.0172
rfoot -13.8299 17.4843
rtoes -7.72976
lfemur 0.421991 -0.533679 -13.0087
ltibia 40.0412
lfoot -8.70513 -24.3927
ltoes 17.0781
244
root 3.23488 17.0046 9.5159 8.21041 18.6104 0.689158
lowerback 16.5142 0.76838 -6.36303
upperback 1.71664 -0.185867 -0.838778
thorax -7.40949 0.0996271 2.7501
lowerneck -13.1053 -1.70761 1.31247
upperneck 25.4731 -2.97235 1.24566
head 10.295 -1.06119 -0.15099
rclavicle -7.95139e-015 6.36111e-015
rhumerus -24.2769 4.90636 -84.8095
rradius 38.9832
rwrist -12.2892
rhand -42.9561 -3.86667
rfingers 7.12502
rthumb -15.816 -33.2406
lclavicle -7.95139e-015 6.36111e-015
lhumerus -27.5778 -10.2118 87.8797
lradius 35.5275
lwrist 25.5503
lhand -28.9676 9.73104
lfingers 7.12502
lthumb -2.32043 39.6982
rfemur -60.8293 4.55073 11.7957
rtibia 75.6792
rfoot -13.5244 17.8246
rtoes -7.52363
lfemur -0.016872 -0.183053 -12.8863
ltibia 41.3441
lfoot -9.23506 -24.807
ltoes 15.9697
245
root 3.23878 16.9271 9.59698 8.33772 18.6184 0.75024
lowerback 16.586 0.704259 -6.31599
upperback 1.80865 -0.256174 -0.757241
thorax -7.34231 0.0618184 2.82743
lowerneck -13.0126 -1.69568 1.39247
upperneck 25.3984 -2.84392 0.768934
head 10.2389 -1.05224 -0.315337
rclavicle 2.74323e-014 -2.34566e-014
rhumerus -23.9487 4.94296 -84.7235
rradius 38.9249
rwrist -12.1256
rhand -43.0668 -3.66735
rfingers 7.12502
rthumb -15.9227 -33.0328
lclavicle 2.74323e-014 -2.34566e-014
lhumerus -27.3297 -10.1143 87.8482
lradius 34.978
lwrist 25.2711
lhand -28.955 9.64562
lfingers 7.12502
lthumb -2.3082 39.6129
rfemur -61.6104 4.14354 11.6924
rtibia 76.3079
rfoot -13.1975 18.1172
rtoes -7.32179
lfemur -0.312186 0.136431 -12.7917
ltibia 42.3808
lfoot -9.95031 -25.085
ltoes 14.6747
246
root 3.24316 16.8469 9.68276 8.46633 18.6282 0.828086
lowerback 16.6336 0.635573 -6.28155
upperback 1.89891 -0.332837 -0.673771
thorax -7.26281 0.0209497 2.91522
lowerneck -12.9219 -1.68082 1.48877
upperneck 25.3319 -2.71608 0.291423
head 10.1869 -1.04152 -0.48254
rclavicle 6.95746e-015 1.55052e-014
rhumerus -23.6143 4.93398 -84.6292
rradius 38.8302
rwrist -11.9855
rhand -43.1843 -3.47498
rfingers 7.12502
rthumb -16.0358 -32.8314
lclavicle 6.95746e-015 1.55052e-014
lhumerus -27.1223 -10.0925 87.8471
lradius 34.5155
lwrist 24.9998
lhand -28.8679 9.52611
lfingers 7.12502
lthumb -2.22411 39.4943
rfemur -62.3959 3.74502 11.5774
rtibia 76.9817
rfoot -12.8962 18.4057
rtoes -7.13159
lfemur -0.548162 0.42179 -12.727
ltibia 43.362
lfoot -10.7974 -25.3431
ltoes 13.2505
247
root 3.24998 16.8255 9.7837 8.59596 18.6374 0.918814
lowerback 16.6584 0.564974 -6.25611
upperback 1.98761 -0.411903 -0.588351
thorax -7.17207 -0.0211925 3.01047
lowerneck -12.8356 -1.66557 1.59295
upperneck 25.2719 -2.59387 -0.173191
head 10.1392 -1.0306 -0.647066
rclavicle 5.96354e-015 8.74653e-015
rhumerus -23.2745 4.87894 -84.5266
rradius 38.6979
rwrist -11.8747
rhand -43.3052 -3.30348
rfingers 7.12502
rthumb -16.1522 -32.6505
lclavicle 5.96354e-015 8.74653e-015
lhumerus -26.9536 -10.1777 87.882
lradius 34.1684
lwrist 24.797
lhand -28.7509 9.41679
lfingers 7.12502
lthumb -2.11109 39.3861
rfemur -62.792 3.41243 11.4804
rtibia 77.4174
rfoot -12.7412 18.7391
rtoes -6.9505
lfemur -0.642827 0.663637 -12.7194
ltibia 44.117
lfoot -11.7456 -25.4872
ltoes 11.7538
